<?xml version="1.0" encoding="UTF-8"?>
<svg version="1.1" xmlns="http://www.w3.org/2000/svg" width="512" height="512">
<path d="M0 0 C2.54977546 2.24642597 5.02774944 4.55087577 7.4921875 6.890625 C7.99363281 7.35952148 8.49507813 7.82841797 9.01171875 8.31152344 C36.13130961 33.79800025 53.302439 68.91365861 57.4921875 105.890625 C57.60304688 106.85871094 57.71390625 107.82679688 57.828125 108.82421875 C61.59281482 147.13248141 51.04514556 184.63446339 34.4921875 218.890625 C33.85990234 220.21658691 33.85990234 220.21658691 33.21484375 221.56933594 C9.62429026 270.8679926 -24.81333952 314.67496522 -61.5078125 354.890625 C-60.45722656 355.38691406 -59.40664063 355.88320313 -58.32421875 356.39453125 C-47.22811394 361.7271638 -36.81606303 366.8895883 -30.7578125 378.140625 C-28.58857935 384.64832444 -28.64489702 389.63523263 -31.4453125 395.953125 C-38.6215494 408.77916168 -52.95312933 415.17867579 -66.54516602 419.12353516 C-97.77123421 427.47716748 -135.13773196 426.97452182 -163.96484375 411.05859375 C-171.35508628 406.693342 -177.95396062 401.4059242 -180.94921875 393.13671875 C-182.71479707 386.03736537 -181.73104579 380.68998808 -178.15625 374.30078125 C-171.66143319 364.80480501 -161.6112548 360.57441733 -151.5078125 355.890625 C-150.8478125 355.560625 -150.1878125 355.230625 -149.5078125 354.890625 C-150.26964844 354.07980469 -151.03148437 353.26898438 -151.81640625 352.43359375 C-157.48412384 346.36828725 -162.96917298 340.23906104 -168.16796875 333.76171875 C-170.36622949 331.06435373 -172.61806643 328.42778915 -174.89794922 325.79980469 C-181.05190322 318.70401803 -186.88223077 311.41182615 -192.5078125 303.890625 C-193.28463379 302.86074463 -193.28463379 302.86074463 -194.07714844 301.81005859 C-213.33935629 276.24518437 -230.1545501 249.50412445 -244.5078125 220.890625 C-244.86214355 220.18599121 -245.21647461 219.48135742 -245.58154297 218.75537109 C-257.16623518 195.48514705 -265.04866802 170.65350704 -268.5078125 144.890625 C-268.63929688 143.91351563 -268.77078125 142.93640625 -268.90625 141.9296875 C-272.02607676 113.85124665 -267.16168597 84.56693568 -255.5078125 58.890625 C-255.06912842 57.92261963 -255.06912842 57.92261963 -254.62158203 56.93505859 C-242.02536188 29.60212773 -221.83524056 5.30321063 -196.5078125 -11.109375 C-195.84845703 -11.53798828 -195.18910156 -11.96660156 -194.50976562 -12.40820312 C-134.42404247 -50.84244549 -54.6069707 -45.93109685 0 0 Z " fill="#F1F1F1" transform="translate(361.5078125,63.109375)"/>
<path d="M0 0 C2.54977546 2.24642597 5.02774944 4.55087577 7.4921875 6.890625 C7.99363281 7.35952148 8.49507813 7.82841797 9.01171875 8.31152344 C36.13130961 33.79800025 53.302439 68.91365861 57.4921875 105.890625 C57.60304688 106.85871094 57.71390625 107.82679688 57.828125 108.82421875 C61.59281482 147.13248141 51.04514556 184.63446339 34.4921875 218.890625 C33.85990234 220.21658691 33.85990234 220.21658691 33.21484375 221.56933594 C9.62429026 270.8679926 -24.81333952 314.67496522 -61.5078125 354.890625 C-60.45722656 355.38691406 -59.40664063 355.88320313 -58.32421875 356.39453125 C-47.22811394 361.7271638 -36.81606303 366.8895883 -30.7578125 378.140625 C-28.58857935 384.64832444 -28.64489702 389.63523263 -31.4453125 395.953125 C-38.6215494 408.77916168 -52.95312933 415.17867579 -66.54516602 419.12353516 C-97.77123421 427.47716748 -135.13773196 426.97452182 -163.96484375 411.05859375 C-171.35508628 406.693342 -177.95396062 401.4059242 -180.94921875 393.13671875 C-182.71479707 386.03736537 -181.73104579 380.68998808 -178.15625 374.30078125 C-171.66143319 364.80480501 -161.6112548 360.57441733 -151.5078125 355.890625 C-150.8478125 355.560625 -150.1878125 355.230625 -149.5078125 354.890625 C-150.26964844 354.07980469 -151.03148437 353.26898438 -151.81640625 352.43359375 C-157.48412384 346.36828725 -162.96917298 340.23906104 -168.16796875 333.76171875 C-170.36622949 331.06435373 -172.61806643 328.42778915 -174.89794922 325.79980469 C-181.05190322 318.70401803 -186.88223077 311.41182615 -192.5078125 303.890625 C-193.28463379 302.86074463 -193.28463379 302.86074463 -194.07714844 301.81005859 C-213.33935629 276.24518437 -230.1545501 249.50412445 -244.5078125 220.890625 C-244.86214355 220.18599121 -245.21647461 219.48135742 -245.58154297 218.75537109 C-257.16623518 195.48514705 -265.04866802 170.65350704 -268.5078125 144.890625 C-268.63929688 143.91351563 -268.77078125 142.93640625 -268.90625 141.9296875 C-272.02607676 113.85124665 -267.16168597 84.56693568 -255.5078125 58.890625 C-255.06912842 57.92261963 -255.06912842 57.92261963 -254.62158203 56.93505859 C-242.02536188 29.60212773 -221.83524056 5.30321063 -196.5078125 -11.109375 C-195.84845703 -11.53798828 -195.18910156 -11.96660156 -194.50976562 -12.40820312 C-134.42404247 -50.84244549 -54.6069707 -45.93109685 0 0 Z M-195.5078125 21.890625 C-196.29800781 22.5403125 -197.08820313 23.19 -197.90234375 23.859375 C-202.6018337 27.8130568 -206.62564427 32.13955259 -210.5078125 36.890625 C-211.26964844 37.80328125 -212.03148437 38.7159375 -212.81640625 39.65625 C-236.28546306 68.80035175 -245.43594362 104.1750036 -242.21923828 141.21337891 C-237.95466506 178.32375232 -218.92815103 210.08235895 -190.5078125 233.890625 C-161.18454268 256.8289893 -125.43720204 266.07277394 -88.64648438 262.06811523 C-63.18632926 258.91929559 -37.95988253 248.87513425 -18.5078125 231.890625 C-17.65316406 231.14554688 -16.79851562 230.40046875 -15.91796875 229.6328125 C-13.41854936 227.41528252 -10.95611912 225.16434949 -8.5078125 222.890625 C-7.90324219 222.34019531 -7.29867187 221.78976562 -6.67578125 221.22265625 C18.2646891 197.56717501 30.57606422 161.97049032 31.6953125 128.3359375 C32.00368555 115.03137765 30.94122595 102.75437647 27.4921875 89.890625 C27.31026855 89.21209473 27.12834961 88.53356445 26.94091797 87.83447266 C24.07290831 77.56961237 19.54378527 68.22106966 14.4921875 58.890625 C13.75162109 57.51777344 13.75162109 57.51777344 12.99609375 56.1171875 C-6.23106407 22.45604435 -38.06987882 1.52434007 -74.7734375 -8.74316406 C-117.04482484 -19.52951901 -162.90961809 -5.72196321 -195.5078125 21.890625 Z " fill="#ED4848" transform="translate(361.5078125,63.109375)"/>
<path d="M0 0 C0 15.51 0 31.02 0 47 C1.98 47.66 3.96 48.32 6 49 C7.963467 49.72222368 9.9227943 50.45577494 11.87841797 51.19897461 C13.01334686 51.62959702 14.14827576 52.06021942 15.31759644 52.50389099 C16.53021149 52.9653804 17.74282654 53.42686981 18.9921875 53.90234375 C20.2647794 54.38565435 21.53741401 54.8688525 22.81008911 55.35194397 C26.15122068 56.62051361 29.49181074 57.89050305 32.83227539 59.16082764 C36.87388861 60.6975053 40.91611092 62.23257982 44.95826912 63.76782322 C48.10718394 64.96382955 51.25597016 66.16017038 54.4045105 67.35716248 C55.54574371 67.79093704 56.68697693 68.22471161 57.86279297 68.67163086 C58.85729462 69.04976425 59.85179626 69.42789764 60.87643433 69.81748962 C64.58114042 71.22000645 68.29091887 72.60909458 72 74 C72 106.34 72 138.68 72 172 C78.93 172 85.86 172 93 172 C96 175 96 175 96.375 178.0625 C96.25125 179.031875 96.1275 180.00125 96 181 C92.37753313 183.41497791 89.74465281 183.28275832 85.56018066 183.26069641 C84.7961098 183.26452196 84.03203893 183.26834751 83.2448144 183.27228898 C80.6768121 183.28263272 78.10903281 183.27862428 75.54101562 183.2746582 C73.70309746 183.27900388 71.8651811 183.28418654 70.02726746 183.29014587 C65.02944884 183.30356164 60.03170572 183.30411176 55.0338726 183.30158257 C50.86610314 183.30051476 46.69834908 183.3053913 42.5305829 183.310188 C32.70152929 183.32129178 22.87251389 183.32171548 13.04345703 183.31567383 C2.89200673 183.30963014 -7.25930511 183.3219531 -17.41073179 183.3432439 C-26.11735785 183.36083533 -34.82393972 183.36686521 -43.5305829 183.36360615 C-48.73471623 183.36178945 -53.93875075 183.364468 -59.14286804 183.37832069 C-64.03481445 183.39085474 -68.92654426 183.38899708 -73.81848717 183.37590981 C-75.61684427 183.37353491 -77.41521641 183.37631117 -79.21355629 183.38453293 C-81.66268585 183.39492518 -84.11107837 183.3869611 -86.56018066 183.3742218 C-87.27700311 183.38159609 -87.99382556 183.38897037 -88.7323699 183.39656812 C-91.61758345 183.36484906 -93.54052822 183.32418825 -95.93764496 181.63286114 C-97.48739628 179.25086208 -97.48589402 177.77653728 -97 175 C-93 172 -93 172 -73 172 C-73 127.12 -73 82.24 -73 36 C-51.01687955 24.42993661 -51.01687955 24.42993661 -40.83984375 19.3359375 C-39.71727676 18.77298981 -38.59470978 18.21004211 -37.43812561 17.6300354 C-35.11250393 16.46473173 -32.78636907 15.30045164 -30.4597168 14.13720703 C-27.47800892 12.64542305 -24.498385 11.14962781 -21.51970577 9.65181541 C-18.64903505 8.2096262 -15.77552253 6.77312192 -12.90234375 5.3359375 C-11.30107887 4.52991592 -11.30107887 4.52991592 -9.66746521 3.70761108 C-8.68786331 3.21934845 -7.70826141 2.73108582 -6.69897461 2.22802734 C-5.83694931 1.79630219 -4.97492401 1.36457703 -4.08677673 0.91976929 C-2 0 -2 0 0 0 Z " fill="#B1B3B3" transform="translate(256,76)"/>
<path d="M0 0 C0 15.51 0 31.02 0 47 C0.66 47.33 1.32 47.66 2 48 C1.34 48 0.68 48 0 48 C0 88.92 0 129.84 0 172 C-7.92 172 -15.84 172 -24 172 C-24 159.79 -24 147.58 -24 135 C-32.25 135 -40.5 135 -49 135 C-49 147.54 -49 160.08 -49 173 C-63.52 173 -78.04 173 -93 173 C-93 172.67 -93 172.34 -93 172 C-86.4 172 -79.8 172 -73 172 C-73 127.12 -73 82.24 -73 36 C-51.01687955 24.42993661 -51.01687955 24.42993661 -40.83984375 19.3359375 C-39.71727676 18.77298981 -38.59470978 18.21004211 -37.43812561 17.6300354 C-35.11250393 16.46473173 -32.78636907 15.30045164 -30.4597168 14.13720703 C-27.47800892 12.64542305 -24.498385 11.14962781 -21.51970577 9.65181541 C-18.64903505 8.2096262 -15.77552253 6.77312192 -12.90234375 5.3359375 C-11.30107887 4.52991592 -11.30107887 4.52991592 -9.66746521 3.70761108 C-8.68786331 3.21934845 -7.70826141 2.73108582 -6.69897461 2.22802734 C-5.83694931 1.79630219 -4.97492401 1.36457703 -4.08677673 0.91976929 C-2 0 -2 0 0 0 Z " fill="#CBCCCC" transform="translate(256,76)"/>
<path d="M0 0 C2.29539653 2.08589605 4.23714014 4.10346377 6.25 6.4375 C7.48164944 7.80844312 8.71615239 9.17682668 9.953125 10.54296875 C10.60474609 11.26661621 11.25636719 11.99026367 11.92773438 12.73583984 C15.52504017 16.66626091 19.25150366 20.46431295 23 24.25 C23.70543945 24.97630615 24.41087891 25.7026123 25.13769531 26.45092773 C30.50498301 31.85721073 34.85420394 35.24376446 42.77734375 35.49609375 C48.85748706 34.13901431 53.49153702 29.94773401 57.72265625 25.60546875 C58.48551186 24.83980339 58.48551186 24.83980339 59.26377869 24.05867004 C60.3301964 22.98557859 61.39303543 21.90891967 62.45239258 20.82885742 C64.05498254 19.19516337 65.66794177 17.57232924 67.28320312 15.95117188 C68.32609364 14.89900495 69.36842192 13.84628041 70.41015625 12.79296875 C70.91342438 12.28563202 71.4166925 11.77829529 71.93521118 11.25558472 C74.61242297 8.52576335 77.01889001 5.73352615 79.30859375 2.67578125 C82 0 82 0 85.44921875 -0.125 C96.59216221 3.40543753 107.87404711 9.284373 114.5 19.2578125 C117.52778224 25.29235072 118.27779498 31.05603664 116.1875 37.5078125 C110.70863145 49.94940982 99.13929045 56.23014645 87 61 C56.38341814 71.63714189 18.2476383 71.82044505 -11.51635742 58.2487793 C-21.05027653 53.5950073 -30.66338911 47.67631333 -34.44140625 37.24609375 C-36.20698457 30.14674037 -35.22323329 24.79936308 -31.6484375 18.41015625 C-26.8014172 11.32339908 -20.25353014 7.33314919 -12.75 3.5 C-11.72169067 2.9738208 -11.72169067 2.9738208 -10.67260742 2.43701172 C-3.6762482 -0.94890173 -3.6762482 -0.94890173 0 0 Z " fill="#FBAF3A" transform="translate(215,419)"/>
<path d="M0 0 C8.25 0 16.5 0 25 0 C25 12.54 25 25.08 25 38 C28.56409668 37.98952637 32.12819336 37.97905273 35.80029297 37.96826172 C47.55093016 37.93518318 59.30157385 37.91295314 71.05224419 37.89637566 C78.17954757 37.88605388 85.30680691 37.87197639 92.43408203 37.84912109 C99.30698186 37.82709197 106.17983581 37.81544475 113.05276871 37.81024551 C115.68032681 37.80653837 118.3078823 37.79929971 120.93542099 37.78853989 C124.60397597 37.774109 128.27233936 37.77201853 131.94091797 37.77294922 C133.03711456 37.76575867 134.13331116 37.75856812 135.26272583 37.75115967 C136.75615509 37.75528366 136.75615509 37.75528366 138.27975464 37.75949097 C139.14808363 37.75764738 140.01641262 37.75580379 140.91105461 37.75390434 C143 38 143 38 145 40 C145.3125 43 145.3125 43 145 46 C141.37753313 48.41497791 138.74465281 48.28275832 134.56018066 48.26069641 C133.7961098 48.26452196 133.03203893 48.26834751 132.2448144 48.27228898 C129.6768121 48.28263272 127.10903281 48.27862428 124.54101562 48.2746582 C122.70309746 48.27900388 120.8651811 48.28418654 119.02726746 48.29014587 C114.02944884 48.30356164 109.03170572 48.30411176 104.0338726 48.30158257 C99.86610314 48.30051476 95.69834908 48.3053913 91.5305829 48.310188 C81.70152929 48.32129178 71.87251389 48.32171548 62.04345703 48.31567383 C51.89200673 48.30963014 41.74069489 48.3219531 31.58926821 48.3432439 C22.88264215 48.36083533 14.17606028 48.36686521 5.4694171 48.36360615 C0.26528377 48.36178945 -4.93875075 48.364468 -10.14286804 48.37832069 C-15.03481445 48.39085474 -19.92654426 48.38899708 -24.81848717 48.37590981 C-26.61684427 48.37353491 -28.41521641 48.37631117 -30.21355629 48.38453293 C-32.66268585 48.39492518 -35.11107837 48.3869611 -37.56018066 48.3742218 C-38.27700311 48.38159609 -38.99382556 48.38897037 -39.7323699 48.39656812 C-42.61753137 48.36484963 -44.54358273 48.31982345 -46.94545746 46.63676739 C-48.43985186 44.31730096 -48.34603976 42.69911012 -48 40 C-46 38 -46 38 -44.01315308 37.75949097 C-42.79403732 37.7661528 -42.79403732 37.7661528 -41.55029297 37.77294922 C-40.62948944 37.77310028 -39.70868591 37.77325134 -38.75997925 37.77340698 C-37.76410797 37.78372955 -36.76823669 37.79405212 -35.7421875 37.8046875 C-34.72399933 37.8075174 -33.70581116 37.81034729 -32.6567688 37.81326294 C-29.396061 37.8244823 -26.13562516 37.84959004 -22.875 37.875 C-20.66797271 37.88502753 -18.46094112 37.89415377 -16.25390625 37.90234375 C-10.83574773 37.92272809 -5.41817927 37.96187364 0 38 C0 25.46 0 12.92 0 0 Z " fill="#41AAF4" transform="translate(207,211)"/>
<path d="M0 0 C2.5625 0.3125 2.5625 0.3125 4.4375 1.375 C6.26098531 4.51544693 5.4283284 6.9110313 4.5625 10.3125 C1.5625 12.3125 1.5625 12.3125 -1.0625 12.0625 C-1.84625 11.815 -2.63 11.5675 -3.4375 11.3125 C-4.94412097 8.29925805 -4.61520373 5.62963623 -4.4375 2.3125 C-2.4375 0.3125 -2.4375 0.3125 0 0 Z " fill="#46A9F0" transform="translate(304.4375,159.6875)"/>
<path d="M0 0 C2.4375 0.8125 2.4375 0.8125 4.4375 2.8125 C4.77411952 5.9767235 4.93693411 7.99763382 3.25 10.75 C1.4375 11.8125 1.4375 11.8125 -1.125 11.625 C-3.5625 10.8125 -3.5625 10.8125 -5.5625 8.8125 C-5.89911952 5.6482765 -6.06193411 3.62736618 -4.375 0.875 C-2.5625 -0.1875 -2.5625 -0.1875 0 0 Z " fill="#46AAF2" transform="translate(207.5625,143.1875)"/>
<path d="M0 0 C3 0.25 3 0.25 5 2.25 C5.333728 5.38704316 5.52849028 7.41554166 3.8125 10.125 C1.38241919 11.63332602 -0.19015752 11.61023622 -3 11.25 C-5 9.25 -5 9.25 -5.25 5.75 C-4.93427155 1.32980166 -4.46370491 0.37197541 0 0 Z " fill="#43A9F2" transform="translate(280,203.75)"/>
<path d="M0 0 C2.4375 0.8125 2.4375 0.8125 4.4375 2.8125 C4.77411952 5.9767235 4.93693411 7.99763382 3.25 10.75 C1.4375 11.8125 1.4375 11.8125 -1.125 11.625 C-3.5625 10.8125 -3.5625 10.8125 -5.5625 8.8125 C-5.89911952 5.6482765 -6.06193411 3.62736618 -4.375 0.875 C-2.5625 -0.1875 -2.5625 -0.1875 0 0 Z " fill="#45AAF3" transform="translate(232.5625,143.1875)"/>
<path d="M0 0 C3.625 0.375 3.625 0.375 7 1 C8.25 7.625 8.25 7.625 6 11 C3 11.3125 3 11.3125 0 11 C-2 9 -2 9 -2.25 5.5 C-2 2 -2 2 0 0 Z " fill="#43A9F2" transform="translate(277,182)"/>
<path d="M0 0 C2.4375 0.75 2.4375 0.75 4.4375 2.75 C4.6875 5.75 4.6875 5.75 4.4375 8.75 C2.4375 10.75 2.4375 10.75 -0.5625 11 C-3.5625 10.75 -3.5625 10.75 -5.5625 8.75 C-5.875 5.25 -5.875 5.25 -5.5625 1.75 C-2.5625 -0.25 -2.5625 -0.25 0 0 Z " fill="#44AAF3" transform="translate(232.5625,165.25)"/>
<path d="M0 0 C1 1 1 1 1.1875 4.4375 C1 8 1 8 -1 10 C-4 10.25 -4 10.25 -7 10 C-9 8 -9 8 -9.3125 5.0625 C-9 2 -9 2 -7.875 0.0625 C-5.04805609 -1.53943488 -3.05073223 -0.79584319 0 0 Z " fill="#44AAF3" transform="translate(211,166)"/>
<path d="M0 0 C3 0.25 3 0.25 5 2.25 C5.3125 5.75 5.3125 5.75 5 9.25 C2 11.25 2 11.25 -0.5625 11 C-3 10.25 -3 10.25 -5 8.25 C-5.25 5.25 -5.25 5.25 -5 2.25 C-3 0.25 -3 0.25 0 0 Z " fill="#44AAF3" transform="translate(207,121.75)"/>
<path d="M0 0 C3.625 0.375 3.625 0.375 7 1 C8.33359073 7.42548263 8.33359073 7.42548263 6.875 9.9375 C4.403308 11.33812547 2.79844834 11.35877543 0 11 C-2 9 -2 9 -2.25 5.5 C-2 2 -2 2 0 0 Z " fill="#43A9F2" transform="translate(302,204)"/>
<path d="M0 0 C2.5625 0.3125 2.5625 0.3125 4.4375 1.375 C6.21032183 4.42819315 5.25485306 6.97661708 4.5625 10.3125 C1.1875 10.9375 1.1875 10.9375 -2.4375 11.3125 C-4.4375 9.3125 -4.4375 9.3125 -4.6875 5.8125 C-4.40166115 1.81075612 -4.09542045 0.5250539 0 0 Z " fill="#43A9F2" transform="translate(304.4375,181.6875)"/>
<path d="M0 0 C2.4375 0.8125 2.4375 0.8125 4.4375 2.8125 C4.6875 5.8125 4.6875 5.8125 4.4375 8.8125 C2.4375 10.8125 2.4375 10.8125 -0.5625 11.0625 C-3.5625 10.8125 -3.5625 10.8125 -5.5625 8.8125 C-5.89911952 5.6482765 -6.06193411 3.62736618 -4.375 0.875 C-2.5625 -0.1875 -2.5625 -0.1875 0 0 Z " fill="#42A9F2" transform="translate(280.5625,160.1875)"/>
<path d="M0 0 C3 0.25 3 0.25 5 2.25 C5.33302312 5.3804173 5.47671956 7.42898298 3.875 10.1875 C2 11.25 2 11.25 -1.125 11.0625 C-2.07375 10.794375 -3.0225 10.52625 -4 10.25 C-5.38125018 7.48749964 -5.19079306 5.30268901 -5 2.25 C-3 0.25 -3 0.25 0 0 Z " fill="#43AAF3" transform="translate(232,121.75)"/>
</svg>
